<?xml version="1.0" encoding="utf-8"?>
<!-- Generator: Adobe Illustrator 16.0.0, SVG Export Plug-In . SVG Version: 6.00 Build 0)  -->
<!DOCTYPE svg PUBLIC "-//W3C//DTD SVG 1.1//EN" "http://www.w3.org/Graphics/SVG/1.1/DTD/svg11.dtd">
<svg version="1.1" id="Capa_1" xmlns="http://www.w3.org/2000/svg" xmlns:xlink="http://www.w3.org/1999/xlink" x="0px" y="0px"
	 width="324.395px" height="324.414px" viewBox="0 0 324.395 324.414" enable-background="new 0 0 324.395 324.414"
	 xml:space="preserve">
<g>
	<g>
		<rect x="99.494" y="128.361" fill="#F2F2F2" width="31.095" height="93.383"/>
		<path fill="#F2F2F2" d="M232.646,136.894c-6.534-7.133-15.175-10.697-25.917-10.697c-3.953,0-7.551,0.486-10.787,1.457
			c-3.233,0.979-5.969,2.344-8.197,4.1c-2.23,1.765-4.007,3.396-5.326,4.904c-1.254,1.428-2.479,3.094-3.671,4.98v-13.277h-31.005
			l0.096,4.522c0.063,3.017,0.091,12.313,0.091,27.896c0,15.581-0.063,35.9-0.187,60.965h31.005v-52.109
			c0-3.201,0.345-5.744,1.031-7.629c1.321-3.209,3.315-5.891,5.987-8.061c2.67-2.168,5.98-3.252,9.938-3.252
			c5.403,0,9.375,1.869,11.923,5.604c2.541,3.738,3.816,8.908,3.816,15.504v49.941h30.999v-53.521
			C242.445,154.464,239.181,144.021,232.646,136.894L232.646,136.894z"/>
		<path fill="#F2F2F2" d="M115.233,83.412c-5.219,0-9.44,1.523-12.679,4.57c-3.236,3.049-4.852,6.893-4.852,11.543
			c0,4.586,1.567,8.418,4.71,11.498c3.14,3.076,7.291,4.613,12.44,4.613h0.188c5.279,0,9.531-1.537,12.77-4.613
			c3.236-3.08,4.823-6.912,4.761-11.498c-0.062-4.65-1.666-8.494-4.806-11.543C124.626,84.935,120.446,83.412,115.233,83.412
			L115.233,83.412z"/>
	</g>
	<g>
		<path fill="#F2F2F2" d="M168.389,255.886"/>
	</g>
</g>
</svg>
