<?xml version="1.0" encoding="utf-8"?>
<!-- Generator: Adobe Illustrator 16.0.0, SVG Export Plug-In . SVG Version: 6.00 Build 0)  -->
<!DOCTYPE svg PUBLIC "-//W3C//DTD SVG 1.1//EN" "http://www.w3.org/Graphics/SVG/1.1/DTD/svg11.dtd">
<svg version="1.1" id="Capa_1" xmlns="http://www.w3.org/2000/svg" xmlns:xlink="http://www.w3.org/1999/xlink" x="0px" y="0px"
	 width="29.438px" height="18.508px" viewBox="0 0 29.438 18.508" enable-background="new 0 0 29.438 18.508" xml:space="preserve">
<g>
	<path fill="#FFFFFF" d="M14.78,18.564c-0.663,0-1.324-0.274-1.799-0.81L1.015,4.248C0.136,3.254,0.227,1.737,1.22,0.857
		c0.993-0.88,2.509-0.79,3.39,0.206L16.576,14.57c0.88,0.992,0.788,2.51-0.205,3.389C15.914,18.364,15.346,18.564,14.78,18.564z"/>
</g>
<g>
	<path fill="#FFFFFF" d="M14.816,18.564c-0.567,0-1.135-0.2-1.592-0.605c-0.993-0.879-1.084-2.396-0.206-3.389L24.987,1.063
		c0.88-0.995,2.399-1.083,3.389-0.206c0.991,0.88,1.083,2.397,0.203,3.391L16.613,17.754C16.139,18.29,15.48,18.564,14.816,18.564z"
		/>
</g>
</svg>
