<?xml version="1.0" encoding="utf-8"?>
<!-- Generator: Adobe Illustrator 16.0.0, SVG Export Plug-In . SVG Version: 6.00 Build 0)  -->
<!DOCTYPE svg PUBLIC "-//W3C//DTD SVG 1.1//EN" "http://www.w3.org/Graphics/SVG/1.1/DTD/svg11.dtd">
<svg version="1.1" id="Capa_1" xmlns="http://www.w3.org/2000/svg" xmlns:xlink="http://www.w3.org/1999/xlink" x="0px" y="0px"
	 width="102.051px" height="49.573px" viewBox="0 0 102.051 49.573" enable-background="new 0 0 102.051 49.573"
	 xml:space="preserve">
<g>
	<path fill="#F2F2F2" d="M0,0v49.578h51.025V0H0z M3.573,46.075V3.502h43.881v42.573H3.573z"/>
	<polygon fill="#F2F2F2" points="14.121,36.511 17.281,36.511 17.281,22.991 37.144,22.991 37.144,19.854 14.121,19.854 	"/>
	<rect x="14.332" y="13.925" fill="#F2F2F2" width="22.812" height="3.138"/>
	<rect x="20.735" y="26.03" fill="#F2F2F2" width="3.181" height="10.452"/>
	<rect x="27.256" y="26.03" fill="#F2F2F2" width="3.181" height="10.452"/>
	<rect x="33.629" y="26.03" fill="#F2F2F2" width="3.182" height="10.452"/>
</g>
<g>
	<path fill="#323232" d="M51.025,0v49.578h51.025V0H51.025z M54.598,46.075V3.502h43.881v42.573H54.598z"/>
	<polygon fill="#323232" points="65.146,36.511 68.306,36.511 68.306,22.991 88.169,22.991 88.169,19.854 65.146,19.854 	"/>
	<rect x="65.357" y="13.925" fill="#323232" width="22.812" height="3.138"/>
	<rect x="71.761" y="26.03" fill="#323232" width="3.181" height="10.452"/>
	<rect x="78.282" y="26.03" fill="#323232" width="3.181" height="10.452"/>
	<rect x="84.654" y="26.03" fill="#323232" width="3.182" height="10.452"/>
</g>
</svg>
